<?xml version="1.0" encoding="utf-8"?>
<!-- Generator: Adobe Illustrator 22.1.0, SVG Export Plug-In . SVG Version: 6.00 Build 0)  -->
<svg version="1.1" id="Layer_1" xmlns="http://www.w3.org/2000/svg" xmlns:xlink="http://www.w3.org/1999/xlink" x="0px" y="0px"
	 viewBox="0 0 512 512" style="enable-background:new 0 0 512 512;" xml:space="preserve">
<style type="text/css">
	.st0{fill:#FCE575;}
	.st1{fill:#FFD551;}
	.st2{fill:#FFA730;}
	.st3{fill:#E58D23;}
	.st4{fill:#FF624B;}
	.st5{fill:#FFF4C1;}
	.st6{fill:#FCDA4F;}
	.st7{fill:#FF4B34;}
	.st8{fill:#CCC033;}
	.st9{fill:#99AF17;}
	.st10{fill:#FF9079;}
	.st11{fill:#EACF32;}
	.st12{fill:#F9BB32;}
	.st13{fill:#FFEA63;}
	.st14{fill:#FFEACF;}
	.st15{fill:#FFD59A;}
	.st16{fill:#FFC34C;}
	.st17{fill:#A56021;}
	.st18{fill:#FFDF74;}
	.st19{fill:#BF6C0D;}
	.st20{fill:#FFB74B;}
	.st21{fill:#8C4C17;}
	.st22{fill:#FCF9DE;}
	.st23{fill:#DB9C2E;}
	.st24{fill:#FFF9DC;}
	.st25{fill:none;}
</style>
<g>
	<g>
		<path class="st0" d="M458.146,386.294H57.14c-13.807,0-25-11.193-25-25v-78.319c0-13.807,11.193-25,25-25h401.006
			c13.807,0,25,11.193,25,25v78.319C483.146,375.101,471.953,386.294,458.146,386.294z"/>
	</g>
	<g>
		<path class="st0" d="M451.243,277.212l-64.873-77.07l-0.013,0.011c-8.099-40.02-43.43-70.16-85.839-70.16H135.101
			c-24.198,0-43.814,19.616-43.814,43.814c-37.104,62.072-34.502,104.303-34.502,104.303h1.32h33.182h296.86h64.973
			C452.502,277.838,451.875,277.533,451.243,277.212z"/>
	</g>
	<g>
		<path class="st1" d="M82.14,361.294v-78.319c0-13.807,11.193-25,25-25h1.312c2.987-18.242,11.093-47.795,32.834-84.167
			c0-24.198,19.616-43.814,43.814-43.814h-50c-24.198,0-43.814,19.616-43.814,43.814c-21.741,36.371-29.847,65.924-32.834,84.167
			H57.14c-13.807,0-25,11.193-25,25v78.319c0,13.807,11.193,25,25,25h50C93.333,386.294,82.14,375.101,82.14,361.294z"/>
	</g>
	<g>
		<path class="st12" d="M344.541,185.142v0.002c-10.026-13.535-26.111-22.29-44.023-22.29H135.101c-3.924,0-7.357,2.071-9.291,5.172
			c0,0-20.81,21.583-18.81,76.748l28.101,0.476h197.574h11.866h15.281h11.515c3.516,0,5.914-3.524,4.664-6.81
			C365.866,211.809,344.541,185.142,344.541,185.142z"/>
	</g>
	<g>
		<path class="st0" d="M483.146,319.936H28.854c-5.5,0-10,4.5-10,10v46.543c0,5.5,4.5,10,10,10h454.292c5.5,0,10-4.5,10-10v-46.543
			C493.146,324.436,488.646,319.936,483.146,319.936z"/>
	</g>
	<g>
		<path class="st1" d="M58.854,356.48c0,5.5,4.5,10,10,10h424.292v10c0,5.5-4.5,10-10,10H28.854c-5.5,0-10-4.5-10-10v-46.543
			c0-5.5,4.5-10,10-10h30V356.48z"/>
	</g>
	<g>
		<circle class="st10" cx="253.717" cy="313.998" r="42.816"/>
	</g>
	<g>
		<path class="st5" d="M227.918,364.859c-1.28,0-2.559-0.488-3.536-1.464c-1.953-1.953-1.953-5.119,0-7.071l37.326-37.326H241.18
			c-3.028,0-5.706-1.705-6.987-4.449s-0.87-5.891,1.075-8.213l34.678-41.41c1.773-2.117,4.927-2.396,7.043-0.623
			c2.117,1.773,2.396,4.927,0.624,7.044l-31.531,37.651h21.152c3.13,0,5.927,1.869,7.124,4.76c1.198,2.892,0.542,6.19-1.671,8.403
			l-41.233,41.233C230.478,364.371,229.198,364.859,227.918,364.859z"/>
	</g>
	<g>
		<circle class="st3" cx="126.606" cy="386.294" r="63.257"/>
	</g>
	<g>
		<circle class="st3" cx="374.299" cy="386.294" r="63.257"/>
	</g>
	<g>
		<path class="st2" d="M482.667,313.998H452c-2.761,0-5-2.239-5-5v-25.886c0-2.761,2.239-5,5-5h30.667c2.761,0,5,2.239,5,5v25.886
			C487.667,311.759,485.428,313.998,482.667,313.998z"/>
	</g>
	<g>
		<rect x="262.016" y="162.855" class="st23" width="16.598" height="82.396"/>
	</g>
	<g>
		<path class="st19" d="M146.606,439.551c-34.936,0-63.257-28.321-63.257-63.257c0-20.74,9.981-39.149,25.402-50.685
			c-26.239,7.708-45.402,31.952-45.402,60.685c0,34.936,28.321,63.257,63.257,63.257c14.196,0,27.3-4.676,37.855-12.573
			C158.796,438.643,152.808,439.551,146.606,439.551z"/>
	</g>
	<g>
		<path class="st19" d="M394.299,439.551c-34.936,0-63.257-28.321-63.257-63.257c0-20.74,9.981-39.149,25.402-50.685
			c-26.239,7.708-45.402,31.952-45.402,60.685c0,34.936,28.321,63.257,63.257,63.257c14.196,0,27.299-4.676,37.855-12.573
			C406.49,438.643,400.502,439.551,394.299,439.551z"/>
	</g>
	<g>
		
			<ellipse transform="matrix(0.3827 -0.9239 0.9239 0.3827 -278.9051 355.5488)" class="st6" cx="126.605" cy="386.48" rx="43.257" ry="43.257"/>
	</g>
	<g>
		
			<ellipse transform="matrix(0.3827 -0.9239 0.9239 0.3827 -125.8279 584.2731)" class="st6" cx="374.299" cy="386.294" rx="43.257" ry="43.257"/>
	</g>
	<g>
		<path class="st16" d="M103.349,386.48c0-20.41,14.212-37.551,33.257-42.077c-3.212-0.763-6.558-1.18-10-1.18
			c-23.852,0-43.257,19.405-43.257,43.257s19.405,43.257,43.257,43.257c3.442,0,6.788-0.416,10-1.179
			C117.561,424.031,103.349,406.889,103.349,386.48z"/>
	</g>
	<g>
		<path class="st16" d="M351.042,386.294c0-20.41,14.212-37.551,33.257-42.078c-3.212-0.763-6.558-1.18-10-1.18
			c-23.852,0-43.257,19.405-43.257,43.257s19.405,43.257,43.257,43.257c3.442,0,6.788-0.416,10-1.179
			C365.254,423.845,351.042,406.704,351.042,386.294z"/>
	</g>
	<g>
		<circle class="st1" cx="136.605" cy="272.975" r="15"/>
	</g>
	<g>
		<circle class="st1" cx="164.46" cy="304.937" r="15"/>
	</g>
	<g>
		<circle class="st23" cx="154.46" cy="199" r="15"/>
	</g>
	<g>
		<path class="st5" d="M474,362.814c-3.313,0-6-2.686-6-6V330.94c0-3.314,2.687-6,6-6s6,2.686,6,6v25.874
			C480,360.128,477.313,362.814,474,362.814z"/>
	</g>
	<g>
		<g>
			<path class="st10" d="M419.473,163.398l7.891,0.302c1.758,0.067,3.121-1.344,2.965-3.104
				c-2.872-32.52-29.985-59.634-62.506-62.506c-1.76-0.155-3.171,1.207-3.104,2.965l0.302,7.891
				c0.063,1.646,1.405,3.039,3.052,3.198c24.988,2.42,45.78,23.212,48.201,48.201C416.434,161.993,417.827,163.335,419.473,163.398z
				"/>
		</g>
	</g>
	<g>
		<g>
			<g>
				<path class="st2" d="M388.353,162.207l9.546,0.365c2.568,0.098,4.448-2.097,4.003-4.654
					c-2.74-15.749-15.652-28.661-31.401-31.401c-2.557-0.445-4.752,1.436-4.654,4.003l0.365,9.546
					C377.99,140.517,387.902,150.43,388.353,162.207z"/>
			</g>
		</g>
	</g>
	<g>
		<g>
			<path class="st4" d="M448.989,164.514l12.329,0.472c2.748,0.105,4.876-2.1,4.633-4.85c-4.488-50.815-46.853-93.18-97.668-97.668
				c-2.749-0.243-4.955,1.886-4.85,4.633l0.472,12.329c0.098,2.572,2.196,4.748,4.77,4.997c39.046,3.782,71.534,36.27,75.316,75.316
				C444.241,162.318,446.417,164.415,448.989,164.514z"/>
		</g>
	</g>
	<g>
		<path class="st23" d="M137.81,179.027c1.934-3.101,5.367-5.172,9.291-5.172h165.417c11.234,0,21.748,3.446,30.501,9.354
			c-10.09-12.423-25.463-20.354-42.501-20.354H135.101c-3.924,0-7.357,2.071-9.291,5.172c0,0-20.81,21.583-18.81,76.748
			l11.904,0.201C119.748,197.783,137.81,179.027,137.81,179.027z"/>
	</g>
	<g>
		<rect x="272.016" y="162.855" class="st0" width="16.598" height="82.396"/>
	</g>
	<g>
		<path class="st1" d="M350.994,237.927c-2.802,0-5.307-1.972-5.877-4.825c-8.127-40.647-31.057-45.832-31.287-45.879
			c-3.246-0.67-5.333-3.844-4.663-7.089c0.67-3.246,3.847-5.332,7.089-4.663c1.26,0.26,30.961,6.925,40.629,55.279
			c0.649,3.249-1.458,6.41-4.708,7.06C351.779,237.889,351.383,237.927,350.994,237.927z"/>
	</g>
</g>
</svg>
